<?xml version="1.0" encoding="utf-8"?>
<!-- Svg Vector Icons : http://www.onlinewebfonts.com/icon -->
<!DOCTYPE svg PUBLIC "-//W3C//DTD SVG 1.1//EN" "http://www.w3.org/Graphics/SVG/1.1/DTD/svg11.dtd">
<svg version="1.1" xmlns="http://www.w3.org/2000/svg" xmlns:xlink="http://www.w3.org/1999/xlink" x="0px" y="0px" viewBox="0 0 1000 1000" enable-background="new 0 0 1000 1000" xml:space="preserve">
<metadata> Svg Vector Icons : http://www.onlinewebfonts.com/icon </metadata>
<g><path d="M326.1,667.6C326.2,667.6,326.2,667.6,326.1,667.6h531.4c10.1,0,18.9-6.7,21.3-16.4l110.6-437.6c1.6-6.4,0.1-13.3-4.1-18.7c-4.1-5.2-10.5-8.3-17.2-8.3H232.9L200.2,57.2c-2.4-9.6-11.1-16.5-21.4-16.5H32c-12.2,0-22,9.9-22,21.7c0,12,9.8,21.7,22,21.7h129.8l32.8,129.5l104.9,415.9c-15.1,4.3-29.4,11.2-40.8,22.5c-18,17.8-27.9,41.7-27.9,66.8c0,30,15,55.7,37,73.1c-2.9,2.2-6.4,3.4-9.2,6.1c-17.9,17.7-27.9,41.5-27.9,66.8c0,52.3,42.8,94.7,95.5,94.7c0,0,0.2,0,0.3,0c25.5,0,49.5-9.8,67.5-27.9c18-17.8,28-41.5,27.9-66.9c0-19.3-7.4-36.1-17.4-51.2H786c-10.3,15.4-17.3,32.4-17.3,51.2c0,52.3,42.8,94.7,95.5,94.7c0,0,0.1,0,0.4,0c25.4,0,49.5-9.8,67.5-27.9c18-17.8,27.9-41.5,27.9-66.9c0-51.9-42.8-94.3-95.7-94.6H326.1c-28.5,0-51.6-22.9-51.6-51.3c0-13.7,5.4-26.4,15.1-36.1C299.3,673.2,312.3,667.6,326.1,667.6z M243.8,230.1H940l-99.6,394.2H343.4L243.8,230.1z M827.5,828.6c9.8-9.6,22.8-15.1,36.9-15.1c28.3,0,51.4,23.1,51.4,51.5c0,13.5-5.2,26.1-15.1,35.9c-9.7,9.7-22.7,15.2-36.4,15.2h-0.5c-28.4,0-51.5-22.9-51.5-51.3C812.4,851.1,817.7,838.3,827.5,828.6z M289.6,828.7c9.8-9.6,22.7-15.1,36.8-15.1c28.5,0,51.5,23,51.5,51.5c0.1,13.5-5.4,26.1-15.1,35.9c-9.7,9.7-22.6,15.1-36.5,15.1h-0.4c-28.3,0-51.4-22.9-51.4-51.3C274.5,851.1,279.8,838.4,289.6,828.7z"/><path d="M373.7,382.6h441.5c11.4,0,20.6-9.2,20.6-20.4s-9.2-20.4-20.6-20.4H373.7c-11.4,0-20.6,9.2-20.6,20.4C353.2,373.5,362.4,382.6,373.7,382.6z"/><path d="M771.4,475H412.2c-11.4,0-20.6,9.1-20.6,20.4c0,11.3,9.2,20.4,20.6,20.4h359.2c11.4,0,20.6-9.1,20.6-20.4C791.9,484.1,782.7,475,771.4,475z"/></g>
</svg>